<?xml version="1.0" encoding="iso-8859-1"?>
<!-- Uploaded to: SVG Repo, www.svgrepo.com, Generator: SVG Repo Mixer Tools -->
<!DOCTYPE svg PUBLIC "-//W3C//DTD SVG 1.1//EN" "http://www.w3.org/Graphics/SVG/1.1/DTD/svg11.dtd">
<svg fill="#000000" version="1.1" id="Capa_1" xmlns="http://www.w3.org/2000/svg" xmlns:xlink="http://www.w3.org/1999/xlink" 
	 width="800px" height="800px" viewBox="0 0 32 32" xml:space="preserve">
<g>
	<path d="M29.884,5.289c-0.387,0.032-0.774,0.048-1.161,0.096c-0.386,0.053-0.771,0.093-1.154,0.175
		c-0.189,0.039-0.381,0.076-0.57,0.121l-0.566,0.152c-0.377,0.096-0.744,0.235-1.113,0.356c-0.362,0.146-0.729,0.276-1.08,0.448
		c-0.355,0.156-0.701,0.338-1.039,0.529c-0.332,0.201-0.668,0.396-0.982,0.623c-0.322,0.214-0.627,0.453-0.932,0.688
		c-0.294,0.248-0.594,0.489-0.866,0.761c-0.278,0.263-0.542,0.542-0.797,0.825c-0.257,0.282-0.498,0.576-0.733,0.873
		c-0.236,0.298-0.451,0.61-0.66,0.924c-0.414,0.633-0.793,1.284-1.104,1.965c-0.075,0.159-0.138,0.322-0.207,0.484
		c-0.183-0.384-0.722-0.207-0.749-0.374c-0.034-0.205,0.268-0.58,0.27-0.583c0.133-0.162,0.215-0.388,0.215-0.635
		c0.002-0.332-0.145-0.619-0.358-0.774c0.632-0.843,1.884-2.099,3.082-3.014c0.429-0.327,0.581-0.765,0.431-1.23
		c-0.195-0.603-0.873-1.106-1.512-1.124c-0.502-0.01-0.898,0.269-1.109,0.791c-0.028,0.052-0.052,0.11-0.052,0.176
		c-0.001,0.201,0.161,0.364,0.362,0.365s0.365-0.162,0.365-0.363c0-0.168-0.115-0.304-0.271-0.347
		c0.206-0.286,0.476-0.356,0.696-0.343c0.521,0.014,1.096,0.44,1.254,0.931c0.079,0.245,0.085,0.603-0.335,0.924
		c-0.649,0.495-2.379,1.999-3.181,3.122c-0.025-0.004-0.051-0.01-0.077-0.011c-0.797-1.127-2.509-2.634-3.153-3.134
		c-0.418-0.322-0.409-0.682-0.329-0.925c0.162-0.489,0.739-0.912,1.26-0.922c0.222-0.013,0.489,0.06,0.693,0.348
		c-0.154,0.041-0.271,0.176-0.272,0.344c0,0.201,0.162,0.365,0.363,0.365c0.201,0.001,0.364-0.161,0.365-0.362
		c0-0.064-0.021-0.123-0.051-0.176c-0.207-0.523-0.603-0.805-1.104-0.798c-0.639,0.013-1.32,0.513-1.52,1.113
		c-0.153,0.466-0.004,0.903,0.423,1.233c1.169,0.906,2.389,2.14,3.024,2.986c-0.255,0.137-0.434,0.451-0.436,0.818
		c-0.001,0.248,0.08,0.474,0.211,0.637c0.001,0.001,0.266,0.424,0.205,0.635c-0.035,0.124-0.255,0.125-0.434,0.3
		c-0.099-0.248-0.199-0.495-0.314-0.737c-0.313-0.681-0.691-1.332-1.104-1.964c-0.209-0.314-0.425-0.626-0.66-0.924
		c-0.236-0.297-0.478-0.591-0.734-0.874c-0.255-0.283-0.519-0.562-0.797-0.825c-0.272-0.271-0.572-0.512-0.866-0.761
		c-0.305-0.235-0.609-0.475-0.932-0.688C9.47,7.284,9.134,7.09,8.802,6.888c-0.338-0.19-0.684-0.372-1.04-0.529
		c-0.35-0.171-0.717-0.302-1.079-0.448C6.313,5.79,5.947,5.65,5.569,5.555L5.003,5.402c-0.19-0.045-0.381-0.083-0.571-0.121
		C4.05,5.198,3.663,5.159,3.277,5.106C2.891,5.058,2.503,5.042,2.116,5.01L0,4.833l1.302,1.763C1.555,6.937,1.804,7.28,2,7.625
		c0.208,0.344,0.354,0.683,0.473,1.029c0.116,0.348,0.187,0.724,0.24,1.147l0.147,1.348c0.057,0.466,0.116,0.937,0.201,1.402
		c0.085,0.47,0.187,0.92,0.3,1.392c0.133,0.512,0.304,0.991,0.546,1.47c0.241,0.473,0.547,0.932,0.938,1.321
		c0.389,0.389,0.847,0.713,1.335,0.944c0.301,0.144,0.61,0.25,0.923,0.332c-0.346,0.302-0.667,0.657-0.95,1.067
		c-0.319,0.461-0.565,1.01-0.699,1.59c-0.041,0.145-0.066,0.291-0.083,0.439c-0.017,0.147-0.046,0.297-0.044,0.444l-0.001,0.224
		l0.001,0.111v0.057v0.027v0.014c0.002,0.021-0.003-0.025,0.004,0.051l0.031,0.363c0.005,0.106,0.04,0.289,0.063,0.434
		c0.022,0.154,0.056,0.301,0.094,0.441c0.067,0.285,0.166,0.57,0.287,0.851c0.24,0.56,0.595,1.097,1.057,1.537
		c0.934,0.889,2.237,1.294,3.449,1.219c1.216-0.069,2.396-0.646,3.149-1.595c0.374-0.471,0.64-1.021,0.746-1.581l0.011-0.046
		l0.003-0.021l0.007-0.041l0.013-0.082l0.025-0.164c0.018-0.109,0.034-0.22,0.051-0.328c0.026-0.234,0.053-0.469,0.079-0.697
		c0.085-0.891,0.072-1.711,0.079-2.446c0.012-0.735,0.025-1.39,0.114-1.95c0.085-0.539,0.241-0.982,0.426-1.338
		c0.039,0.547,0.099,1.172,0.188,1.795c0.227,1.577,0.602,3.82,0.682,4.876c0.003-0.817,0.396-3.301,0.674-5.058
		c0.092-0.583,0.17-1.159,0.233-1.674c0.011,0.014,0.021,0.027,0.03,0.042c0.046,0.08,0.094,0.164,0.145,0.254
		c0.193,0.36,0.358,0.821,0.446,1.382c0.089,0.561,0.103,1.215,0.114,1.949c0.007,0.734-0.006,1.558,0.078,2.445
		c0.026,0.23,0.054,0.463,0.08,0.699c0.017,0.107,0.032,0.217,0.051,0.326l0.025,0.165l0.012,0.083l0.008,0.041l0.003,0.021
		l0.011,0.047c0.105,0.558,0.372,1.109,0.746,1.58c0.754,0.949,1.934,1.524,3.148,1.595c1.213,0.075,2.517-0.33,3.449-1.218
		c0.463-0.441,0.816-0.979,1.057-1.539c0.121-0.278,0.221-0.563,0.287-0.85c0.039-0.141,0.072-0.285,0.095-0.441
		c0.022-0.145,0.058-0.325,0.063-0.434l0.03-0.363c0.007-0.076,0.002-0.028,0.004-0.051v-0.014v-0.027v-0.057l0.001-0.111
		l-0.001-0.223c0.002-0.146-0.026-0.298-0.044-0.445s-0.042-0.295-0.083-0.438c-0.134-0.581-0.38-1.13-0.698-1.591
		c-0.283-0.409-0.604-0.767-0.951-1.067c0.313-0.082,0.623-0.188,0.924-0.332c0.488-0.231,0.945-0.556,1.335-0.944
		c0.391-0.389,0.696-0.849,0.938-1.321c0.24-0.479,0.412-0.958,0.545-1.469c0.113-0.472,0.215-0.923,0.301-1.392
		c0.084-0.467,0.145-0.937,0.201-1.403l0.146-1.348c0.054-0.423,0.124-0.8,0.24-1.146C29.646,8.586,29.792,8.248,30,7.903
		c0.195-0.344,0.445-0.687,0.698-1.028L32,5.111L29.884,5.289z M5.527,16.102c-0.607-0.657-0.972-1.51-1.173-2.381
		c-0.188-0.886-0.331-1.783-0.422-2.685C3.831,10.138,3.813,9.211,3.53,8.318C3.276,7.499,2.804,6.782,2.301,6.111
		c0.288,0.018,0.576,0.032,0.863,0.065c0.361,0.046,0.725,0.077,1.082,0.151l0.536,0.099l0.531,0.127
		c0.356,0.079,0.7,0.201,1.049,0.303c0.341,0.128,0.688,0.24,1.02,0.392c0.339,0.136,0.663,0.301,0.99,0.462
		C8.69,7.885,9.015,8.053,9.319,8.253c0.313,0.188,0.609,0.4,0.908,0.609c0.289,0.222,0.58,0.44,0.854,0.681
		c0.28,0.233,0.547,0.483,0.807,0.738c0.262,0.254,0.511,0.521,0.756,0.792c0.241,0.273,0.474,0.555,0.699,0.842
		c0.448,0.576,0.858,1.183,1.23,1.811c0.159,0.27,0.311,0.544,0.453,0.823c-0.043,0.12-0.072,0.273-0.075,0.479
		c-0.001,0.1,0,0.246,0.005,0.426c-0.159,0.009-0.337,0.021-0.536,0.04c-0.438,0.039-0.973,0.089-1.581,0.193
		c-0.61,0.098-1.3,0.231-2.041,0.451c-0.743,0.213-1.546,0.503-2.356,0.95c-0.154,0.087-0.31,0.185-0.464,0.282
		c-0.044-0.008-0.09-0.01-0.134-0.02C6.966,17.183,6.129,16.764,5.527,16.102z M14.787,16.369c-0.257,0.356-0.511,0.839-0.665,1.432
		c-0.162,0.591-0.249,1.274-0.317,2.017c-0.068,0.744-0.122,1.547-0.244,2.387c-0.14,0.824-0.238,1.77-0.851,2.452
		c-0.58,0.698-1.507,1.106-2.455,1.153c-0.948,0.045-1.937-0.281-2.627-0.957c-0.709-0.658-1.085-1.615-1.199-2.56
		c-0.135-0.954,0.049-1.922,0.553-2.688c0.244-0.385,0.545-0.724,0.869-1.021c0.153-0.136,0.312-0.264,0.473-0.384
		c0.293,0.014,0.584,0.01,0.87-0.009c0.491-0.032,0.97-0.105,1.438-0.205c0.936-0.204,1.821-0.531,2.671-0.907
		c0.424-0.196,0.837-0.407,1.241-0.633c0.117-0.066,0.23-0.139,0.345-0.21C14.854,16.279,14.822,16.321,14.787,16.369z
		 M14.433,16.196c-0.416,0.181-0.838,0.347-1.266,0.497c-0.856,0.299-1.735,0.537-2.631,0.671c-0.344,0.051-0.689,0.08-1.037,0.095
		c0.52-0.274,1.038-0.502,1.536-0.689c1.39-0.52,2.603-0.793,3.448-0.978c0.179-0.036,0.336-0.068,0.481-0.099
		c0.003,0.08,0.006,0.164,0.011,0.252C14.796,16.032,14.615,16.116,14.433,16.196z M16.949,16.189l-0.111-0.056
		c0.008-0.067,0.016-0.134,0.021-0.197c0.187,0.038,0.402,0.082,0.656,0.135c0.846,0.184,2.06,0.458,3.448,0.978
		c0.498,0.187,1.017,0.413,1.536,0.689c-0.348-0.017-0.693-0.046-1.037-0.097c-0.896-0.135-1.773-0.371-2.631-0.67
		c-0.428-0.149-0.85-0.315-1.268-0.498C17.359,16.384,17.152,16.289,16.949,16.189z M25.02,19.884
		c0.504,0.768,0.688,1.733,0.553,2.688c-0.114,0.942-0.49,1.899-1.199,2.56c-0.689,0.676-1.68,1.001-2.627,0.957
		c-0.948-0.048-1.875-0.456-2.455-1.154c-0.611-0.685-0.711-1.627-0.852-2.451c-0.121-0.84-0.176-1.645-0.244-2.387
		c-0.067-0.742-0.154-1.426-0.316-2.017c-0.154-0.593-0.408-1.076-0.665-1.433c-0.034-0.047-0.067-0.089-0.101-0.134
		c0.113,0.071,0.228,0.145,0.345,0.211c0.403,0.226,0.817,0.437,1.24,0.632c0.851,0.377,1.735,0.703,2.672,0.906
		c0.468,0.101,0.946,0.174,1.438,0.206c0.285,0.02,0.576,0.022,0.869,0.009c0.161,0.121,0.319,0.248,0.473,0.383
		C24.475,19.16,24.773,19.5,25.02,19.884z M28.471,8.597c-0.283,0.894-0.302,1.819-0.402,2.718c-0.092,0.902-0.233,1.8-0.422,2.686
		c-0.201,0.871-0.565,1.723-1.174,2.38c-0.602,0.663-1.438,1.08-2.316,1.251c-0.045,0.01-0.09,0.012-0.135,0.02
		c-0.153-0.099-0.31-0.195-0.463-0.282c-0.812-0.446-1.613-0.736-2.356-0.949c-0.741-0.221-1.431-0.354-2.041-0.452
		c-0.608-0.104-1.144-0.153-1.581-0.193c-0.27-0.025-0.501-0.038-0.696-0.048c0.04-0.376,0.068-0.682,0.082-0.884
		c0.146-0.283,0.3-0.562,0.461-0.836c0.372-0.629,0.782-1.234,1.23-1.812c0.226-0.287,0.458-0.568,0.698-0.841
		c0.246-0.271,0.494-0.538,0.756-0.793c0.261-0.255,0.527-0.505,0.808-0.738c0.274-0.239,0.565-0.459,0.854-0.681
		c0.299-0.209,0.596-0.422,0.908-0.609c0.305-0.2,0.629-0.367,0.946-0.543c0.327-0.161,0.651-0.327,0.99-0.463
		c0.331-0.151,0.679-0.263,1.021-0.391c0.348-0.103,0.691-0.225,1.049-0.303l0.53-0.127l0.536-0.099
		c0.357-0.074,0.721-0.105,1.082-0.152c0.286-0.032,0.575-0.046,0.863-0.063C29.195,7.061,28.725,7.777,28.471,8.597z"/>
</g>
</svg>